<?xml version="1.0" encoding="utf-8"?>
<!-- Generator: Adobe Illustrator 17.1.0, SVG Export Plug-In . SVG Version: 6.00 Build 0)  -->
<!DOCTYPE svg PUBLIC "-//W3C//DTD SVG 1.1//EN" "http://www.w3.org/Graphics/SVG/1.1/DTD/svg11.dtd">
<svg version="1.1" id="Layer_1" xmlns:sketch="http://www.bohemiancoding.com/sketch/ns"
	 xmlns="http://www.w3.org/2000/svg" xmlns:xlink="http://www.w3.org/1999/xlink" x="0px" y="0px" viewBox="0 0 526 315"
	 enable-background="new 0 0 526 315" xml:space="preserve">
<title>Artboard 32</title>
<desc>Created with Sketch.</desc>
<g id="Page-1" sketch:type="MSPage">
	<g id="Artboard-32" sketch:type="MSArtboardGroup">
		<g id="Group" transform="translate(45.000000, 73.000000)" sketch:type="MSLayerGroup">
			
				<ellipse id="Oval-4" sketch:type="MSShapeGroup" opacity="0.612" fill="none" stroke="#8D67B8" enable-background="new    " cx="321.9" cy="84.5" rx="38.7" ry="38.6">
			</ellipse>
			
				<ellipse id="Oval-5" sketch:type="MSShapeGroup" opacity="0.2373" fill="none" stroke="#8D67B8" enable-background="new    " cx="322.2" cy="84.2" rx="59.3" ry="59.2">
			</ellipse>
			
				<ellipse id="Oval-6" sketch:type="MSShapeGroup" opacity="6.798041e-002" fill="none" stroke="#8D67B8" enable-background="new    " cx="322.4" cy="84.5" rx="84.7" ry="84.5">
			</ellipse>
			<path id="Mrkt-Beat-2" sketch:type="MSShapeGroup" fill="#8D67B8" stroke="#8D67B8" d="M72,109.2V36.2h-0.4l-33.5,72.9h-1.9
				L2.8,36.2H2.4v72.9H0.1V33.6h4.2l32.9,72.2l32.9-72.2h4.2v75.6H72z M99.4,73c1.4-5.1,3.7-8.8,6.8-11.1c3.1-2.2,6.5-3.4,10.2-3.4
				h1c0.3,0,0.6,0,1,0.1v2c-0.3-0.1-0.6-0.1-0.8-0.1h-0.6c-3.1,0-5.8,0.7-8,2.1c-2.2,1.4-4,3.2-5.5,5.4c-1.4,2.2-2.5,4.7-3.2,7.5
				c-0.7,2.7-1,5.5-1,8.2v25.4h-2.4V72.4c0-0.8,0-1.7-0.1-2.9c0-1.1-0.1-2.3-0.1-3.5c0-1.2-0.1-2.3-0.2-3.4c-0.1-1.1-0.1-2-0.2-2.7
				h2.4c0.1,0.7,0.1,1.6,0.2,2.7c0,1.1,0.1,2.2,0.1,3.5c0,1.2,0.1,2.5,0.1,3.6c0,1.2,0.1,2.2,0.1,3.1H99.4z M132.9,82.7L158.4,60
				h3.3l-26,22.7l29,26.4h-3.5l-28.2-25.9h-0.1v25.9h-2.4V28.4h2.4v54.2H132.9z M197.1,109.3c-0.9,0.4-1.9,0.6-3,0.9
				s-2.2,0.3-3.3,0.3c-3.9,0-6.6-1.1-8.3-3.3c-1.7-2.2-2.5-4.9-2.5-8.2V62.1h-10.7v-2h10.6V45.6h2.5V60h14.4v2h-14.4V99
				c0,3.3,0.8,5.7,2.5,7.2c1.6,1.5,3.8,2.2,6.5,2.2c2,0,3.8-0.3,5.5-1L197.1,109.3z M285.4,89c0,4.1-0.8,7.4-2.3,10
				c-1.5,2.6-3.5,4.6-5.9,6.1s-5,2.5-7.9,3.1c-2.9,0.6-5.7,0.9-8.3,0.9h-23.2V33.6h20.6c2.9,0,5.7,0.3,8.5,0.9
				c2.8,0.6,5.3,1.5,7.5,2.9s4,3.2,5.3,5.4s2,5.2,2,8.6c0,2.7-0.4,5.1-1.3,7c-0.9,2-2,3.7-3.5,5.1s-3.1,2.6-5,3.5s-3.7,1.5-5.7,2
				v0.2c1.9,0.2,4,0.7,6.2,1.5c2.2,0.8,4.3,2,6.2,3.6c1.9,1.6,3.5,3.6,4.7,6C284.7,82.7,285.4,85.6,285.4,89L285.4,89z M279.5,51.7
				c0-3.1-0.6-5.6-1.8-7.7c-1.2-2.1-2.8-3.7-4.8-4.9c-2-1.2-4.3-2.1-6.9-2.6c-2.6-0.5-5.3-0.8-8.2-0.8h-17.6v32.6h18.2
				c2.6,0,5.1-0.3,7.6-1c2.5-0.6,4.8-1.6,6.8-2.9c2-1.3,3.6-3,4.9-5.1S279.5,54.6,279.5,51.7L279.5,51.7z M283,89.3
				c0-3.4-0.7-6.3-2.1-8.8c-1.4-2.4-3.2-4.4-5.3-5.9c-2.1-1.5-4.5-2.6-7.1-3.3c-2.6-0.7-5.1-1-7.5-1h-21V107h19.8
				c3.3,0,6.3-0.3,9.2-1c2.9-0.7,5.3-1.7,7.3-3.1c2-1.4,3.6-3.3,4.8-5.5C282.4,95.1,283,92.4,283,89.3L283,89.3z M300.9,84.1
				c0,3,0.4,5.9,1.3,8.9c0.9,2.9,2.2,5.5,4.1,7.8c1.8,2.3,4.1,4.2,6.9,5.6c2.8,1.4,6.1,2.1,9.8,2.1c3.9,0,7.3-0.8,10.3-2.3
				c3-1.5,5.6-3.8,7.8-6.7l1.7,1.5c-2.4,3.1-5.3,5.5-8.5,7.2s-7,2.5-11.3,2.5c-3.6,0-7-0.7-9.9-2c-3-1.3-5.6-3.1-7.8-5.5
				c-2.2-2.3-3.9-5.2-5-8.4c-1.2-3.3-1.8-6.8-1.8-10.7c0-3.7,0.6-7.1,1.8-10.3c1.2-3.1,2.9-5.8,5-8.1c2.1-2.3,4.6-4,7.4-5.3
				c2.9-1.2,5.9-1.9,9.2-1.9c3.9,0,7.2,0.7,10.1,2c2.9,1.4,5.2,3.1,7.1,5.3c1.9,2.2,3.3,4.7,4.2,7.5s1.4,5.7,1.4,8.6v2H300.9z
				 M342.5,82c-0.1-3.2-0.6-6.1-1.7-8.8c-1-2.6-2.4-4.9-4.2-6.8c-1.8-1.9-3.9-3.3-6.4-4.4c-2.5-1-5.3-1.5-8.3-1.5
				c-3.7,0-6.9,0.8-9.5,2.3c-2.6,1.5-4.8,3.4-6.5,5.7c-1.7,2.2-2.9,4.6-3.7,7c-0.8,2.5-1.2,4.6-1.2,6.5H342.5z M395.4,98
				c0,1.9,0.1,3.8,0.3,5.9c0.2,2.1,0.4,3.8,0.6,5.2H394c-0.1-0.7-0.2-1.6-0.3-2.6c-0.1-1-0.2-2.1-0.3-3.2s-0.2-2.2-0.2-3.3
				c0-1.1-0.1-2-0.1-2.7h-0.3c-1.4,4.5-3.9,7.8-7.4,10c-3.5,2.2-7.2,3.3-11.2,3.3c-2,0-4-0.3-5.9-0.9c-2-0.6-3.7-1.4-5.3-2.6
				s-2.8-2.6-3.8-4.4s-1.4-3.9-1.4-6.3c0-3.5,0.9-6.3,2.7-8.4c1.8-2.1,4.1-3.8,6.8-5c2.7-1.2,5.6-1.9,8.7-2.3
				c3.1-0.4,5.9-0.5,8.5-0.5h8.6v-4c0-5.5-1.5-9.5-4.4-12c-2.9-2.5-6.7-3.8-11.4-3.8c-2.9,0-5.7,0.5-8.2,1.6
				c-2.5,1.1-4.8,2.5-6.8,4.3l-1.3-1.8c2.3-2,4.9-3.5,7.8-4.5c2.9-1,5.7-1.5,8.5-1.5c5.6,0,10.1,1.4,13.3,4.3
				c3.2,2.9,4.9,7.4,4.9,13.6V98z M393.1,82.4h-7.6c-2.7,0-5.6,0.2-8.6,0.5c-3,0.3-5.7,1-8.2,2c-2.5,1-4.5,2.4-6.2,4.3
				c-1.6,1.9-2.4,4.3-2.4,7.5c0,2.3,0.4,4.2,1.3,5.7c0.9,1.5,2,2.8,3.4,3.7s2.9,1.6,4.6,2s3.3,0.6,4.8,0.6c3.6,0,6.7-0.7,9.1-2
				c2.4-1.4,4.4-3.1,5.8-5.2c1.5-2.1,2.5-4.4,3-6.9c0.6-2.5,0.9-5,0.9-7.4V82.4z M434.4,109.3c-0.9,0.4-1.9,0.6-3,0.9
				c-1.1,0.2-2.2,0.3-3.3,0.3c-3.9,0-6.6-1.1-8.3-3.3c-1.7-2.2-2.5-4.9-2.5-8.2V62.1h-10.7v-2h10.6V45.6h2.5V60h14.4v2h-14.4V99
				c0,3.3,0.8,5.7,2.5,7.2c1.6,1.5,3.8,2.2,6.5,2.2c2,0,3.8-0.3,5.5-1L434.4,109.3z"/>
		</g>
	</g>
</g>
</svg>
